<svg width="16" height="16" viewBox="0 0 16 16" fill="none" xmlns="http://www.w3.org/2000/svg">
<path d="M16 8C16 12.4183 12.4183 16 8 16C3.58172 16 0 12.4183 0 8C0 3.58172 3.58172 0 8 0C12.4183 0 16 3.58172 16 8Z" fill="#60A5FA"/>
<path d="M12.7589 5.63636V10H11.8363V5.63636H12.7589Z" fill="white"/>
<path d="M6.34606 5.63636H7.48384L8.68555 8.56818H8.73668L9.93839 5.63636H11.0762V10H10.1813V7.1598H10.1451L9.0158 9.97869H8.40643L7.27717 7.14915H7.24094V10H6.34606V5.63636Z" fill="white"/>
<path d="M2.37926 10V5.63636H4.12642C4.44744 5.63636 4.7152 5.68395 4.92969 5.77912C5.14418 5.87429 5.3054 6.00639 5.41335 6.17543C5.52131 6.34304 5.57528 6.53622 5.57528 6.75497C5.57528 6.92543 5.54119 7.07528 5.47301 7.20455C5.40483 7.33239 5.31108 7.4375 5.19176 7.51989C5.07386 7.60085 4.93892 7.65838 4.78693 7.69247V7.73509C4.95313 7.74219 5.10866 7.78906 5.25355 7.87571C5.39986 7.96236 5.51847 8.08381 5.60938 8.24006C5.70028 8.39489 5.74574 8.57955 5.74574 8.79403C5.74574 9.02557 5.68821 9.23224 5.57315 9.41406C5.45952 9.59446 5.29119 9.73722 5.06818 9.84233C4.84517 9.94744 4.57031 10 4.24361 10H2.37926ZM3.30185 9.24574H4.05398C4.31108 9.24574 4.49858 9.19673 4.61648 9.09872C4.73438 8.99929 4.79332 8.86719 4.79332 8.70241C4.79332 8.58168 4.7642 8.47514 4.70597 8.38281C4.64773 8.29048 4.56463 8.21804 4.45668 8.16548C4.35014 8.11293 4.22301 8.08665 4.07528 8.08665H3.30185V9.24574ZM3.30185 7.46236H3.9858C4.11222 7.46236 4.22443 7.44034 4.32244 7.39631C4.42188 7.35085 4.5 7.28693 4.55682 7.20455C4.61506 7.12216 4.64418 7.02344 4.64418 6.90838C4.64418 6.75071 4.58807 6.62358 4.47585 6.52699C4.36506 6.4304 4.20739 6.3821 4.00284 6.3821H3.30185V7.46236Z" fill="white"/>
</svg>
